<?xml version="1.0" standalone="no"?>
<!DOCTYPE svg PUBLIC "-//W3C//DTD SVG 20010904//EN"
 "http://www.w3.org/TR/2001/REC-SVG-20010904/DTD/svg10.dtd">
<svg version="1.0" xmlns="http://www.w3.org/2000/svg"
 width="1000.000000pt" height="1000.000000pt" viewBox="0 0 1000.000000 1000.000000"
 preserveAspectRatio="xMidYMid meet">
<metadata>
Created by potrace 1.11, written by Peter Selinger 2001-2013
</metadata>
<g transform="translate(0.000000,1000.000000) scale(0.100000,-0.100000)"
fill="#000000" stroke="none">
<path d="M4940 7892 c0 -8 -36 -13 -110 -16 -25 0 -48 -5 -51 -10 -4 -5 -29
-10 -55 -11 -27 -2 -50 -4 -51 -5 -4 -4 -57 -15 -116 -26 -9 -1 -21 -6 -27 -9
-5 -3 -28 -8 -51 -10 -24 -3 -45 -8 -48 -12 -5 -7 -24 -12 -58 -15 -7 -1 -13
-5 -13 -10 0 -5 -4 -7 -9 -3 -5 3 -12 1 -15 -4 -4 -5 -14 -8 -24 -7 -9 2 -19
0 -22 -5 -3 -4 -19 -9 -35 -11 -17 -2 -33 -7 -36 -11 -3 -5 -12 -10 -20 -11
-8 -2 -27 -9 -44 -15 -16 -7 -34 -14 -40 -15 -5 -1 -17 -6 -25 -11 -8 -5 -21
-10 -28 -11 -13 -2 -36 -12 -126 -55 -22 -11 -45 -19 -52 -19 -7 0 -14 -3 -16
-7 -1 -5 -48 -30 -103 -58 -55 -27 -101 -53 -103 -57 -2 -4 -20 -16 -40 -25
-41 -19 -163 -96 -184 -116 -7 -6 -24 -18 -38 -25 -14 -7 -40 -26 -59 -42 -18
-17 -36 -30 -40 -30 -3 0 -23 -15 -43 -33 -57 -50 -89 -77 -93 -77 -11 0 -260
-244 -314 -307 -16 -18 -32 -29 -36 -25 -5 4 -5 2 -2 -4 3 -5 -10 -28 -30 -50
-19 -21 -47 -55 -62 -74 -14 -19 -34 -44 -43 -54 -10 -11 -20 -27 -23 -37 -3
-9 -12 -20 -20 -23 -8 -3 -15 -12 -15 -21 0 -8 -3 -15 -7 -15 -5 0 -21 -21
-38 -48 -16 -26 -32 -49 -36 -52 -3 -3 -14 -18 -23 -35 -9 -16 -25 -43 -35
-60 -103 -168 -269 -520 -287 -609 -2 -10 -8 -24 -15 -32 -6 -8 -9 -14 -5 -14
3 0 -1 -16 -9 -36 -8 -20 -15 -45 -15 -55 0 -11 -4 -19 -9 -19 -6 0 -10 -8
-10 -17 0 -17 -7 -55 -11 -60 -2 -2 -4 -7 -5 -13 -1 -5 -4 -11 -5 -12 -1 -2
-3 -14 -5 -28 -1 -14 -8 -45 -15 -70 -18 -59 -31 -127 -35 -180 -1 -14 -4 -26
-5 -27 -1 -2 -4 -12 -5 -23 -1 -11 -3 -21 -5 -22 -1 -2 -3 -27 -6 -57 -2 -30
-8 -59 -14 -65 -7 -7 -10 -521 -10 -1568 l0 -1558 1543 3 c848 2 1556 6 1572
9 17 4 53 9 80 13 113 14 163 23 286 50 11 2 28 6 37 9 9 3 31 8 47 11 47 9
49 10 63 18 6 5 12 6 12 3 0 -3 38 8 85 24 47 16 85 26 85 23 0 -3 6 0 13 6 8
6 22 12 33 14 10 2 33 9 49 16 17 7 63 25 102 41 130 52 451 217 481 247 7 7
19 13 26 13 7 0 21 9 31 20 10 11 24 20 31 20 7 0 14 3 16 8 2 4 32 27 68 52
36 24 67 48 68 52 2 4 10 8 17 8 7 0 15 3 17 8 2 4 26 25 53 47 28 22 57 46
66 55 9 8 45 40 79 70 119 103 291 285 370 391 14 18 33 41 43 51 9 10 14 18
10 18 -5 0 0 5 10 11 9 5 17 17 17 24 0 8 4 15 9 15 6 0 25 25 43 55 18 30 36
55 40 55 5 0 8 7 8 15 0 8 3 15 8 15 4 0 12 9 17 20 6 10 35 61 65 112 69 115
211 401 215 433 1 6 9 27 19 47 9 21 16 39 16 42 0 3 5 17 12 33 6 15 12 34
14 41 1 8 6 21 10 30 4 9 9 26 11 36 2 11 8 25 14 33 6 7 9 13 6 13 -4 0 0 18
8 40 8 22 14 42 15 45 0 3 0 6 1 8 2 8 9 36 14 61 3 16 8 33 10 37 3 4 8 24
11 45 8 48 12 69 14 69 2 0 8 32 13 75 3 19 7 46 11 60 4 14 8 45 11 70 2 25
8 79 14 120 7 48 10 609 11 1583 l0 1507 -1560 0 c-858 0 -1560 -4 -1560 -8z"/>
</g>
</svg>
