<svg xmlns="http://www.w3.org/2000/svg" width="874.576" height="673.081" viewBox="0 0 874.576 673.081">
  <g id="Group_14" data-name="Group 14" transform="translate(-203 -155.811)">
    <rect id="Rectangle_22" data-name="Rectangle 22" width="874.576" height="1.627" transform="translate(203 827.148)" fill="#2f2e41"/>
    <path id="Path_96" data-name="Path 96" d="M778.38,237.352h-3.7V136.04A58.637,58.637,0,0,0,716.045,77.4H501.4a58.637,58.637,0,0,0-58.637,58.637V691.847A58.637,58.637,0,0,0,501.4,750.484H716.045a58.637,58.637,0,0,0,58.637-58.637V309.468h3.7Z" transform="translate(230.236 78.408)" fill="#3f3d56"/>
    <path id="Path_97" data-name="Path 97" d="M763.516,137.688v554.99a43.792,43.792,0,0,1-43.791,43.791H504.051a43.792,43.792,0,0,1-43.791-43.791V137.688A43.792,43.792,0,0,1,504.05,93.9h26.165a20.815,20.815,0,0,0,19.265,28.661H672.447A20.815,20.815,0,0,0,691.711,93.9h28.014a43.792,43.792,0,0,1,43.791,43.791Z" transform="translate(228.921 77.169)" fill="#fff"/>
    
  <text x="0" y="15" fill="red">I love SVG!</text>


    <g id="Group_13" data-name="Group 13" transform="translate(-7.7 -11.931)">
      <rect id="Rectangle_55" data-name="Rectangle 55" width="47.52" height="11.44" transform="translate(351.54 346.369)" fill="#6c63ff"/>
      <rect id="Rectangle_56" data-name="Rectangle 56" width="16.72" height="11.44" transform="translate(546.9 346.369)" fill="#6c63ff"/>
      <rect id="Rectangle_57" data-name="Rectangle 57" width="16.72" height="11.44" transform="translate(580.34 346.369)" fill="#6c63ff"/>
      <rect id="Rectangle_58" data-name="Rectangle 58" width="113.52" height="11.44" transform="translate(415.78 346.369)" fill="#6c63ff"/>
      <rect id="Rectangle_59" data-name="Rectangle 59" width="47.52" height="11.44" transform="translate(291.7 420.289)" fill="#6c63ff"/>
      <rect id="Rectangle_60" data-name="Rectangle 60" width="16.72" height="11.44" transform="translate(487.06 420.289)" fill="#6c63ff"/>
      <rect id="Rectangle_61" data-name="Rectangle 61" width="16.72" height="11.44" transform="translate(520.5 420.289)" fill="#6c63ff"/>
      <rect id="Rectangle_62" data-name="Rectangle 62" width="113.52" height="11.44" transform="translate(355.94 420.289)" fill="#6c63ff"/>
      <rect id="Rectangle_63" data-name="Rectangle 63" width="47.52" height="11.44" transform="translate(487.94 371.889)" fill="#6c63ff"/>
      <rect id="Rectangle_64" data-name="Rectangle 64" width="47.52" height="11.44" transform="translate(552.18 371.889)" fill="#6c63ff"/>
      <rect id="Rectangle_66" data-name="Rectangle 66" width="16.72" height="11.44" transform="translate(291.7 371.889)" fill="#6c63ff"/>
      <rect id="Rectangle_67" data-name="Rectangle 67" width="16.72" height="11.44" transform="translate(325.14 371.889)" fill="#6c63ff"/>
      <rect id="Rectangle_68" data-name="Rectangle 68" width="113.52" height="11.44" transform="translate(358.58 371.889)" fill="#6c63ff"/>
      <rect id="Rectangle_69" data-name="Rectangle 69" width="47.52" height="11.44" transform="translate(436.9 407.969) rotate(180)" fill="#6c63ff"/>
      <rect id="Rectangle_70" data-name="Rectangle 70" width="47.52" height="11.44" transform="translate(372.66 407.969) rotate(180)" fill="#6c63ff"/>
      <rect id="Rectangle_71" data-name="Rectangle 71" width="16.72" height="11.44" transform="translate(308.42 407.969) rotate(180)" fill="#6c63ff"/>
      <rect id="Rectangle_73" data-name="Rectangle 73" width="16.72" height="11.44" transform="translate(599.7 407.969) rotate(180)" fill="#6c63ff"/>
      <rect id="Rectangle_74" data-name="Rectangle 74" width="113.52" height="11.44" transform="translate(566.26 407.969) rotate(180)" fill="#6c63ff"/>
    </g>
    <path id="Path_156" data-name="Path 156" d="M138.423,692.261l-.94-.352c-.207-.078-20.767-7.955-30.4-25.817s-4.916-39.37-4.867-39.584l.222-.979.94.352c.207.078,20.767,7.955,30.4,25.817s4.916,39.37,4.867,39.584Zm-29.8-27c8.143,15.1,24.391,22.844,28.507,24.611.783-4.412,3.237-22.255-4.9-37.342s-24.389-22.84-28.507-24.611C102.944,632.333,100.491,650.173,108.626,665.26Z" transform="translate(127.262 135.024)" fill="#3f3d56"/>
    <path id="Path_157" data-name="Path 157" d="M110.864,663.651c17.309,10.414,23.975,31.1,23.975,31.1s-21.4,3.8-38.706-6.613-23.975-31.1-23.975-31.1S93.555,653.237,110.864,663.651Z" transform="translate(130.843 131.199)" fill="#6c63ff"/>
    <path id="Path_158" data-name="Path 158" d="M986.852,639.131l22-30.948-22.048,34.338-.048,3.546q-2.32-.043-4.592-.2c0-.805,2.288-45.086,2.218-45.888.107-.029.209-4.188.253-4.37l-22.32-34.284,22.376,31.061.059.912,1.69-34.4-19.126-35.44,19.341,29.394c.012-.468,1.641-71.126,1.655-71.562,0,.232-.134,56.241-.134,56.477l18.855-22.356-18.922,27.2-.4,30.8L1005.3,543.8c-22.01,43.224-17.083,28.071-17.867,51.271l25.527-41.225-25.609,47.2Z" transform="translate(-258.957 167.384)" fill="#d0cde1"/>
    <path id="Path_188" data-name="Path 188" d="M979.2,589.923l15.144-21.3-15.174,23.633-.033,2.44q-1.6-.029-3.16-.136c0-.554,1.575-31.03,1.527-31.582.074-.02.144-2.882.174-3.007l-15.361-23.6,15.4,21.377.04.628,1.163-23.678-13.164-24.391,13.311,20.23c.008-.322,1.13-48.952,1.139-49.252,0,.159-.093,38.708-.092,38.87l12.977-15.387-13.023,18.72-.278,21.2,12.1-20.382c-15.148,29.749-11.757,19.319-12.3,35.287l17.569-28.373L979.545,563.71Z" transform="translate(-21.583 218.754)" fill="#d0cde1"/>
    <ellipse id="Ellipse_14" data-name="Ellipse 14" cx="2.178" cy="2.178" rx="2.178" ry="2.178" transform="translate(717.106 222.058)" fill="#3f3d56"/>
    <ellipse id="Ellipse_15" data-name="Ellipse 15" cx="2.178" cy="2.178" rx="2.178" ry="2.178" transform="translate(725.092 222.058)" fill="#3f3d56"/>
    <ellipse id="Ellipse_16" data-name="Ellipse 16" cx="2.178" cy="2.178" rx="2.178" ry="2.178" transform="translate(733.079 222.058)" fill="#3f3d56"/>
    <rect id="Rectangle_24" data-name="Rectangle 24" width="22.508" height="2.904" transform="translate(940.736 218.428)" fill="#3f3d56"/>
    <rect id="Rectangle_25" data-name="Rectangle 25" width="22.508" height="2.904" transform="translate(940.736 222.784)" fill="#3f3d56"/>
    <rect id="Rectangle_26" data-name="Rectangle 26" width="22.508" height="2.904" transform="translate(940.736 227.141)" fill="#3f3d56"/>
  </g>
</svg>
